<svg xmlns="http://www.w3.org/2000/svg" viewBox="0 0 100 100" fill="none">
  <rect x="38" y="20" width="10" height="10" rx="2" fill="#e3f3ea" stroke="#0b6e4f" stroke-width="3"/>
  <path d="M32 36 C32 30 36 28 43 28 C50 28 54 30 54 36 V72 C54 78 48 80 43 80 C38 80 32 78 32 72 Z" fill="#e3f3ea" stroke="#0b6e4f" stroke-width="4"/>
  <rect x="34" y="48" width="18" height="10" fill="#e8a93b"/>
  <path d="M62 40 C68 40 72 44 72 50 V72 C72 76 68 78 65 78 C62 78 58 76 58 72 V50 C58 44 62 40 62 40 Z" fill="#e3f3ea" stroke="#0b6e4f" stroke-width="3"/>
</svg>
